<?xml version="1.0" encoding="UTF-8" standalone="no"?>
<!-- Generator: Adobe Illustrator 16.0.0, SVG Export Plug-In . SVG Version: 6.00 Build 0)  -->

<svg
   xmlns:dc="http://purl.org/dc/elements/1.1/"
   xmlns:cc="http://creativecommons.org/ns#"
   xmlns:rdf="http://www.w3.org/1999/02/22-rdf-syntax-ns#"
   xmlns:svg="http://www.w3.org/2000/svg"
   xmlns="http://www.w3.org/2000/svg"
   xmlns:sodipodi="http://sodipodi.sourceforge.net/DTD/sodipodi-0.dtd"
   xmlns:inkscape="http://www.inkscape.org/namespaces/inkscape"
   version="1.1"
   id="Capa_1"
   x="0px"
   y="0px"
   width="512px"
   height="512px"
   viewBox="0 0 438.529 438.529"
   style="enable-background:new 0 0 438.529 438.529;"
   xml:space="preserve"
   sodipodi:docname="user-shape-card.svg"
   inkscape:version="0.92.3 (2405546, 2018-03-11)"><metadata
   id="metadata45"><rdf:RDF><cc:Work
       rdf:about=""><dc:format>image/svg+xml</dc:format><dc:type
         rdf:resource="http://purl.org/dc/dcmitype/StillImage" /><dc:title /></cc:Work></rdf:RDF></metadata><defs
   id="defs43" /><sodipodi:namedview
   pagecolor="#ffffff"
   bordercolor="#666666"
   borderopacity="1"
   objecttolerance="10"
   gridtolerance="10"
   guidetolerance="10"
   inkscape:pageopacity="0"
   inkscape:pageshadow="2"
   inkscape:window-width="1299"
   inkscape:window-height="713"
   id="namedview41"
   showgrid="false"
   inkscape:zoom="0.4609375"
   inkscape:cx="119.75593"
   inkscape:cy="256"
   inkscape:window-x="67"
   inkscape:window-y="27"
   inkscape:window-maximized="1"
   inkscape:current-layer="Capa_1" />
<g
   id="g8"
   transform="matrix(1.0462235,0,0,1,-8.2771061,1.8581735)"
   style="fill:#6c6c6c;fill-opacity:1">
	<g
   id="g6"
   style="fill:#6c6c6c;fill-opacity:1">
		<path
   d="m 219.265,219.267 c 30.271,0 56.108,-10.71 77.518,-32.121 21.412,-21.411 32.12,-47.248 32.12,-77.515 0,-30.262 -10.708,-56.1 -32.12,-77.516 C 275.366,10.705 249.528,0 219.265,0 189.002,0 163.16,10.705 141.75,32.115 c -21.414,21.416 -32.121,47.253 -32.121,77.516 0,30.267 10.707,56.104 32.121,77.515 21.416,21.411 47.251,32.121 77.515,32.121 z"
   id="path2"
   inkscape:connector-curvature="0"
   style="fill:#6c6c6c;fill-opacity:1" />
		<path
   d="m 419.258,335.036 c -0.668,-9.609 -2.002,-19.985 -3.997,-31.121 -1.999,-11.136 -4.524,-21.457 -7.57,-30.978 -3.046,-9.514 -7.139,-18.794 -12.278,-27.836 -5.137,-9.041 -11.037,-16.748 -17.703,-23.127 -6.666,-6.377 -14.801,-11.465 -24.406,-15.271 -9.617,-3.805 -20.229,-5.711 -31.84,-5.711 -1.711,0 -5.709,2.046 -11.991,6.139 -6.276,4.093 -13.367,8.662 -21.266,13.708 -7.898,5.037 -18.182,9.609 -30.834,13.695 -12.658,4.093 -25.361,6.14 -38.118,6.14 -12.752,0 -25.456,-2.047 -38.112,-6.14 -12.655,-4.086 -22.936,-8.658 -30.835,-13.695 -7.898,-5.046 -14.987,-9.614 -21.267,-13.708 -6.283,-4.093 -10.278,-6.139 -11.991,-6.139 -11.61,0 -22.222,1.906 -31.833,5.711 -9.613,3.806 -17.749,8.898 -24.412,15.271 -6.661,6.379 -12.562,14.086 -17.699,23.127 -5.137,9.042 -9.229,18.326 -12.275,27.836 -3.045,9.521 -5.568,19.842 -7.566,30.978 -2,11.136 -3.332,21.505 -3.999,31.121 -0.666,9.616 -0.998,19.466 -0.998,29.554 0,22.836 6.949,40.875 20.842,54.104 13.896,13.224 32.36,19.835 55.39,19.835 h 249.533 c 23.028,0 41.49,-6.611 55.388,-19.835 13.901,-13.229 20.845,-31.265 20.845,-54.104 -0.002,-10.088 -0.334,-19.938 -1.008,-29.554 z"
   id="path4"
   inkscape:connector-curvature="0"
   style="fill:#6c6c6c;fill-opacity:1" />
	</g>
</g>
<g
   id="g10">
</g>
<g
   id="g12">
</g>
<g
   id="g14">
</g>
<g
   id="g16">
</g>
<g
   id="g18">
</g>
<g
   id="g20">
</g>
<g
   id="g22">
</g>
<g
   id="g24">
</g>
<g
   id="g26">
</g>
<g
   id="g28">
</g>
<g
   id="g30">
</g>
<g
   id="g32">
</g>
<g
   id="g34">
</g>
<g
   id="g36">
</g>
<g
   id="g38">
</g>
</svg>